<svg xmlns="http://www.w3.org/2000/svg" width="940" height="480" viewBox="0 0 940 480">
<defs><pattern id="diagonal" width="8" height="8" patternUnits="userSpaceOnUse"><rect width="8" height="8" fill="#0072B2"/><path d="M-2 2 L2 -2 M0 8 L8 0 M6 10 L10 6" stroke="#FFFFFF" stroke-width="2"/></pattern><pattern id="dots" width="8" height="8" patternUnits="userSpaceOnUse"><rect width="8" height="8" fill="#E69F00"/><circle cx="2" cy="2" r="1.5" fill="#111111"/></pattern></defs>
<rect width="100%" height="100%" fill="#FFFFFF"/>
<text x="470.0" y="32" text-anchor="middle" font-family="Arial,sans-serif" font-size="21" font-weight="700">T+2 active return before and after explicit trading frictions</text>
<line x1="90" y1="261.28" x2="910" y2="261.28" stroke="#222222" stroke-width="1.5"/>
<line x1="90" y1="390.00" x2="910" y2="390.00" stroke="#D9D9D9" stroke-width="1"/>
<text x="80" y="395.00" text-anchor="end" font-family="Arial,sans-serif" font-size="13">-22.3</text>
<line x1="90" y1="326.00" x2="910" y2="326.00" stroke="#D9D9D9" stroke-width="1"/>
<text x="80" y="331.00" text-anchor="end" font-family="Arial,sans-serif" font-size="13">-11.2</text>
<line x1="90" y1="262.00" x2="910" y2="262.00" stroke="#D9D9D9" stroke-width="1"/>
<text x="80" y="267.00" text-anchor="end" font-family="Arial,sans-serif" font-size="13">-0.1</text>
<line x1="90" y1="198.00" x2="910" y2="198.00" stroke="#D9D9D9" stroke-width="1"/>
<text x="80" y="203.00" text-anchor="end" font-family="Arial,sans-serif" font-size="13">10.9</text>
<line x1="90" y1="134.00" x2="910" y2="134.00" stroke="#D9D9D9" stroke-width="1"/>
<text x="80" y="139.00" text-anchor="end" font-family="Arial,sans-serif" font-size="13">22.0</text>
<line x1="90" y1="70.00" x2="910" y2="70.00" stroke="#D9D9D9" stroke-width="1"/>
<text x="80" y="75.00" text-anchor="end" font-family="Arial,sans-serif" font-size="13">33.1</text>
<text x="295.00" y="422" text-anchor="middle" font-family="Arial,sans-serif" font-size="13">Turnover cap 0.15</text>
<rect x="241.00" y="162.36" width="49.00" height="98.91" fill="url(#diagonal)" stroke="#111111"/>
<text x="265.50" y="155.36" text-anchor="middle" font-family="Arial,sans-serif" font-size="12" font-weight="700">+17.11</text>
<rect x="295.00" y="254.22" width="49.00" height="7.05" fill="url(#dots)" stroke="#111111"/>
<text x="319.50" y="247.22" text-anchor="middle" font-family="Arial,sans-serif" font-size="12" font-weight="700">+1.22</text>
<text x="705.00" y="422" text-anchor="middle" font-family="Arial,sans-serif" font-size="13">No effective cap</text>
<rect x="651.00" y="106.92" width="49.00" height="154.35" fill="url(#diagonal)" stroke="#111111"/>
<text x="675.50" y="99.92" text-anchor="middle" font-family="Arial,sans-serif" font-size="12" font-weight="700">+26.70</text>
<rect x="705.00" y="261.28" width="49.00" height="91.80" fill="url(#dots)" stroke="#111111"/>
<text x="729.50" y="370.08" text-anchor="middle" font-family="Arial,sans-serif" font-size="12" font-weight="700">-15.88</text>
<rect x="90" y="445" width="22" height="15" fill="url(#diagonal)" stroke="#111111"/>
<text x="120" y="458" font-family="Arial,sans-serif" font-size="13">Frictionless active %</text>
<rect x="280" y="445" width="22" height="15" fill="url(#dots)" stroke="#111111"/>
<text x="310" y="458" font-family="Arial,sans-serif" font-size="13">Realistic active %</text>
</svg>
